HIERARCHY
ROOT hip
{
	OFFSET 0.000000 0.000000 0.000000 
	CHANNELS 6 Xposition Yposition Zposition Xrotation Zrotation Yrotation
	JOINT abdomen
	{
		OFFSET 0.000000 3.402643 0.000000 
		CHANNELS 3 Xrotation Zrotation Yrotation
		JOINT chest
		{
			OFFSET 0.000000 8.438565 -0.680529 
			CHANNELS 3 Xrotation Zrotation Yrotation
			JOINT neck
			{
				OFFSET 0.000000 10.207942 -0.272212 
				CHANNELS 3 Xrotation Zrotation Yrotation
				JOINT head
				{
					OFFSET 0.000000 3.130431 0.000000 
					CHANNELS 3 Xrotation Zrotation Yrotation
					End Site
					{
						OFFSET 0.000000 3.130435 0.000000 
					}
				}
			}
			JOINT lCollar
			{
				OFFSET 3.470700 6.669187 -0.816635 
				CHANNELS 3 Yrotation Zrotation Xrotation
				JOINT lShldr
				{
					OFFSET 3.198488 0.000000 0.000000 
					CHANNELS 3 Zrotation Yrotation Xrotation
					JOINT lForeArm
					{
						OFFSET 10.139888 0.000000 0.000000 
						CHANNELS 3 Yrotation Zrotation Xrotation
						JOINT lHand
						{
							OFFSET 8.370511 0.000000 0.000000 
							CHANNELS 3 Zrotation Yrotation Xrotation
							End Site
							{
								OFFSET 4.083176 0.000000 0.000000 
							}
						}
					}
				}
			}
			JOINT rCollar
			{
				OFFSET -3.470700 6.669187 -0.816635 
				CHANNELS 3 Yrotation Zrotation Xrotation
				JOINT rShldr
				{
					OFFSET -3.198488 0.000000 0.000000 
					CHANNELS 3 Zrotation Yrotation Xrotation
					JOINT rForeArm
					{
						OFFSET -10.139888 0.000000 0.000000 
						CHANNELS 3 Yrotation Zrotation Xrotation
						JOINT rHand
						{
							OFFSET -8.370511 0.000000 0.000000 
							CHANNELS 3 Zrotation Yrotation Xrotation
							End Site
							{
								OFFSET -4.083176 0.000000 0.000000 
							}
						}
					}
				}
			}
		}
	}
	JOINT lThigh
	{
		OFFSET 5.308129 -1.633274 1.361059 
		CHANNELS 3 Xrotation Zrotation Yrotation
		JOINT lShin
		{
			OFFSET -2.041588 -20.007561 0.000000 
			CHANNELS 3 Xrotation Zrotation Yrotation
			JOINT lFoot
			{
				OFFSET 0.000000 -19.190928 -1.224953 
				CHANNELS 3 Xrotation Yrotation Zrotation
				End Site
				{
					OFFSET 0.000000 -2.449906 4.627600 
				}
			}
		}
	}
	JOINT rThigh
	{
		OFFSET -5.308129 -1.633274 1.361059 
		CHANNELS 3 Xrotation Zrotation Yrotation
		JOINT rShin
		{
			OFFSET 2.041588 -20.007561 0.000000 
			CHANNELS 3 Xrotation Zrotation Yrotation
			JOINT rFoot
			{
				OFFSET 0.000000 -19.190928 -1.224953 
				CHANNELS 3 Xrotation Yrotation Zrotation
				End Site
				{
					OFFSET 0.000000 -2.449906 4.627600 
				}
			}
		}
	}
}
MOTION
Frames: 8
Frame Time: 0.033333
-9.590401 35.750977 16.520895 15.401472 -33.318474 49.144676 0.000000 0.000000 0.000000 31.184242 -0.701796 9.497046 44.242535 -0.337949 -7.588154 -9.112287 0.586061 -7.433295 -3.519355 9.157742 6.311733 -79.717751 -67.518471 10.178374 -55.903969 28.867935 35.113724 0.457507 35.418022 -10.058682 3.090466 -14.082293 8.028685 55.100796 62.399712 -37.517487 67.200394 3.812244 65.703102 11.020972 -28.269245 -11.702936 -96.486969 18.670540 -3.442301 83.241295 3.584312 -20.612509 -8.681696 0.300194 -1.440154 -93.669815 5.713024 -11.152246 71.285599 -7.148249 -2.773549 -6.754405 -0.271708 1.512798 
-9.440791 34.930206 16.765039 14.393030 -32.082272 49.815529 0.000000 0.000000 0.000000 32.238853 -0.677339 9.436029 43.679642 -0.805018 -7.058900 -7.627312 0.375057 -6.759572 -3.519355 9.157742 6.311733 -76.059326 -65.971474 6.115371 -59.935314 26.358593 34.424625 -0.675020 35.915848 -10.345027 3.090466 -14.082293 8.028685 53.263420 61.935703 -39.960331 67.989090 4.684586 63.604027 10.460191 -27.587944 -11.496768 -96.418205 18.748766 -3.397760 86.033554 4.013167 -20.185099 -9.569821 0.168612 -0.372449 -93.832718 5.586157 -12.029772 74.624260 -7.841444 -3.157276 -8.279086 -0.208001 0.751831 
-9.275662 34.119320 17.025124 13.079112 -30.779118 50.501785 0.000000 0.000000 0.000000 33.546127 -0.455792 9.297338 43.584320 -1.246625 -6.652590 -6.816424 0.084728 -6.224542 -3.519355 9.157742 6.311733 -72.786713 -64.407280 2.312947 -63.491684 23.980221 33.379402 -0.933933 35.612648 -10.375660 3.090466 -14.082293 8.028685 51.703140 61.746319 -42.479530 69.475891 5.446600 64.690094 12.322555 -27.498476 -11.758827 -96.172203 19.129061 -3.384015 88.853790 4.470712 -20.129139 -10.443283 0.003554 0.813194 -93.669044 5.586327 -13.058288 77.769386 -8.515214 -3.700348 -9.940889 -0.112554 -0.000250 
-9.115644 33.328983 17.211666 12.064511 -29.246248 50.949863 0.000000 0.000000 0.000000 34.885700 -0.688935 9.226618 44.384014 -1.187001 -6.601672 -7.060568 0.094030 -6.159179 -3.519355 9.157742 6.311733 -70.823662 -64.027870 0.319937 -65.732048 22.568865 32.781052 -0.629482 34.674202 -10.232021 3.090466 -14.082293 8.028685 50.599785 61.513409 -44.375294 70.428108 6.163874 62.826538 10.395328 -28.151304 -11.581227 -95.638809 18.680719 -3.689726 91.511681 5.144794 -19.412260 -11.146624 -0.118978 1.535427 -93.464394 5.341632 -14.007548 80.826141 -9.158312 -4.057723 -11.168455 -0.038528 -0.572267 
-8.825083 32.493828 17.418024 11.289615 -27.922920 51.246765 0.000000 0.000000 0.000000 35.961227 -0.814186 8.989340 44.715679 -1.193804 -6.578078 -6.699224 -0.037677 -6.093207 -3.519355 9.157742 6.311733 -67.943352 -62.484928 -3.422853 -69.881676 19.960436 31.765656 -0.754826 34.696507 -10.269232 3.090466 -14.082293 8.028685 48.893425 60.785938 -46.740154 72.663750 7.397412 62.733818 11.738019 -27.651731 -11.700858 -95.292351 18.914021 -3.457570 94.314247 5.482627 -18.943230 -12.348415 -0.333329 2.836533 -93.403580 5.829844 -14.277444 83.815269 -10.135482 -5.475293 -12.568347 0.056833 -1.202648 
-8.440745 31.659149 17.601805 10.550637 -26.473394 51.461967 0.000000 0.000000 0.000000 37.039661 -1.130374 8.834568 45.576550 -0.874651 -6.676704 -7.012196 -0.442042 -6.067861 -3.519355 9.157742 6.311733 -65.831543 -60.899094 -6.436376 -74.327652 17.325537 30.960991 0.081769 34.593990 -10.078513 3.090466 -14.082293 8.028685 47.730892 59.504696 -48.662399 75.366707 8.663679 62.211281 12.208724 -27.415907 -11.725309 -94.705093 19.071972 -3.074742 97.256905 5.818947 -18.121204 -13.726895 -0.591999 4.100475 -93.238075 6.347590 -14.339280 86.980972 -11.151680 -6.857785 -13.713278 0.165967 -1.751623 
-8.238714 31.008148 17.560726 9.977498 -24.618849 51.744804 0.000000 0.000000 0.000000 38.270145 -1.625672 8.190501 46.582069 -0.728554 -6.622154 -7.189813 -0.967894 -5.829805 -3.519355 9.157742 6.311733 -63.471718 -61.299431 -8.944912 -75.565041 16.555426 30.916998 0.458360 34.774487 -10.008187 3.090466 -14.082293 8.028685 45.742287 60.166740 -50.642754 74.751663 8.488591 60.926025 10.832213 -27.781858 -11.593293 -93.515190 18.251930 -2.761946 99.297478 6.218869 -17.044619 -14.414460 -0.784218 5.024668 -92.777313 5.078318 -15.421473 89.505806 -11.699015 -6.269645 -14.132760 0.218587 -1.846347 
-7.851584 30.251396 17.726620 9.411908 -23.677931 51.659355 0.000000 0.000000 0.000000 38.880653 -1.817298 8.163917 47.302792 -0.860696 -6.546363 -7.162347 -1.296974 -5.639818 -3.519355 9.157742 6.311733 -61.622807 -60.723389 -11.210441 -77.552231 15.331746 29.114126 -0.047587 34.635590 -10.106107 3.090466 -14.082293 8.028685 45.080730 59.216000 -52.130154 77.439972 9.661110 59.857502 11.339310 -27.471577 -11.609627 -93.274971 18.524208 -2.779978 102.080605 6.550316 -16.784822 -15.800890 -1.066299 6.196764 -92.759163 5.908010 -15.195029 92.278984 -12.509992 -7.666411 -15.563026 0.407661 -2.675208 
